<?xml version="1.0" encoding="UTF-8"?>
<svg width="337px" height="453px" viewBox="0 0 337 453" version="1.1" xmlns="http://www.w3.org/2000/svg" xmlns:xlink="http://www.w3.org/1999/xlink">
    <title>Group 14</title>
    <defs>
        <filter x="-14.9%" y="-10.4%" width="129.7%" height="120.8%" filterUnits="objectBoundingBox" id="filter-1">
            <feOffset dx="0" dy="0" in="SourceAlpha" result="shadowOffsetOuter1"></feOffset>
            <feGaussianBlur stdDeviation="6" in="shadowOffsetOuter1" result="shadowBlurOuter1"></feGaussianBlur>
            <feColorMatrix values="0 0 0 0 0   0 0 0 0 0   0 0 0 0 0  0 0 0 1 0" type="matrix" in="shadowBlurOuter1" result="shadowMatrixOuter1"></feColorMatrix>
            <feMerge>
                <feMergeNode in="shadowMatrixOuter1"></feMergeNode>
                <feMergeNode in="SourceGraphic"></feMergeNode>
            </feMerge>
        </filter>
        <filter x="-8.6%" y="-18.1%" width="117.1%" height="136.2%" filterUnits="objectBoundingBox" id="filter-2">
            <feOffset dx="0" dy="0" in="SourceAlpha" result="shadowOffsetOuter1"></feOffset>
            <feGaussianBlur stdDeviation="6" in="shadowOffsetOuter1" result="shadowBlurOuter1"></feGaussianBlur>
            <feColorMatrix values="0 0 0 0 0   0 0 0 0 0   0 0 0 0 0  0 0 0 0.5 0" type="matrix" in="shadowBlurOuter1" result="shadowMatrixOuter1"></feColorMatrix>
            <feMerge>
                <feMergeNode in="shadowMatrixOuter1"></feMergeNode>
                <feMergeNode in="SourceGraphic"></feMergeNode>
            </feMerge>
        </filter>
        <filter x="-14.6%" y="-10.4%" width="129.1%" height="120.8%" filterUnits="objectBoundingBox" id="filter-3">
            <feOffset dx="0" dy="0" in="SourceAlpha" result="shadowOffsetOuter1"></feOffset>
            <feGaussianBlur stdDeviation="6" in="shadowOffsetOuter1" result="shadowBlurOuter1"></feGaussianBlur>
            <feColorMatrix values="0 0 0 0 0   0 0 0 0 0   0 0 0 0 0  0 0 0 0.5 0" type="matrix" in="shadowBlurOuter1" result="shadowMatrixOuter1"></feColorMatrix>
            <feMerge>
                <feMergeNode in="shadowMatrixOuter1"></feMergeNode>
                <feMergeNode in="SourceGraphic"></feMergeNode>
            </feMerge>
        </filter>
    </defs>
    <g id="Page-1" stroke="none" stroke-width="1" fill="none" fill-rule="evenodd">
        <g id="Group-9" transform="translate(-792.000000, -269.000000)" fill-rule="nonzero">
            <g id="Group-14" filter="url(#filter-1)" transform="translate(826.000000, 303.000000)">
                <g id="Group-3" filter="url(#filter-2)" transform="translate(0.000000, 257.500000)">
                    <path d="M269,57.8257082 C268.871089,58.257767 268.735732,58.6898257 268.613266,59.1218845 C267.859135,61.884442 266.395991,64.2476724 264.50744,66.309771 C262.00656,69.0461431 259.383214,71.6777737 256.77276,74.3094042 C254.671505,76.4304199 251.932139,77.3927326 249.244338,78.4597868 C246.994835,79.356636 244.725995,79.6839533 242.379809,79.0293188 C241.554776,78.8001967 240.781308,78.3746843 239.962721,78.0342744 C238.054834,81.1110564 236.797948,84.5086093 237.113781,88.3316746 C237.281366,90.3937732 238.383557,91.3888176 240.394574,91.775052 C242.966355,92.2725742 245.364106,91.7554129 247.652283,90.6032562 C249.83733,89.5034703 251.983704,88.3185819 254.149414,87.179518 C254.56193,86.9634886 254.987338,86.7670982 255.425636,86.6427177 C256.063747,86.45942 256.676076,86.5707079 257.075701,87.1664253 C257.481772,87.7752353 257.159494,88.35786 256.740532,88.7048163 C255.612558,89.6409436 254.491029,90.6425343 253.214807,91.3233542 C249.727755,93.1956088 246.015109,94.4394143 242.025303,94.4983314 C238.544697,94.5507021 235.541062,93.3723601 233.156203,90.675266 C231.815525,89.1565141 231.25476,87.4217327 231.074285,85.4185512 C230.681105,81.0390466 231.892872,77.0654154 233.665402,73.1703403 C235.998698,68.0510987 239.511532,63.7828819 243.082376,59.5539432 C246.492081,55.5083022 250.546342,52.2154908 254.826198,49.1845332 C256.276451,48.1567571 257.913625,47.4562982 259.641037,47.5021226 C262.193481,47.5741324 264.50744,48.5037134 266.408882,50.3366899 C267.86558,51.7376077 268.516582,53.5116671 268.845306,55.4624778 C268.871089,55.6261364 268.948435,55.7832487 269,55.940361 C269,56.5688101 269,57.1972591 269,57.8257082 Z M259.583027,66.1722978 C259.634591,66.119927 259.692601,66.0741026 259.744166,66.0217318 C259.815067,65.9562684 259.885968,65.8908049 259.95687,65.8318878 C261.245983,64.4375164 262.386848,62.9384035 263.153871,61.1905294 C263.095861,61.1512514 263.044296,61.1119733 262.986286,61.0726952 C261.935659,62.5979935 260.885031,64.1232919 259.840849,65.6485902 C259.757057,65.740239 259.67971,65.8318878 259.595918,65.9235367 C259.56369,65.9759074 259.531462,66.0282782 259.492789,66.0871953 C259.479898,66.1526587 259.467007,66.2246685 259.44767,66.290132 C259.499234,66.2508539 259.537908,66.2115758 259.583027,66.1722978 Z M252.634706,52.9814131 C252.789399,52.8570326 252.944093,52.732652 253.105232,52.6148178 C253.073004,52.5689934 253.034331,52.523169 253.002103,52.483891 C252.834518,52.6148178 252.666934,52.7457447 252.499349,52.8766716 C252.480012,52.9486814 252.460675,53.0206912 252.441339,53.092701 C252.499349,53.0534229 252.57025,53.0206912 252.634706,52.9814131 Z M251.584078,53.6164086 C251.242463,53.9109941 250.894403,54.212126 250.552788,54.5067115 C249.534388,55.3773753 248.477315,56.2218538 247.497589,57.1317957 C243.230624,61.0923343 239.756463,65.7206 236.688373,70.6630902 C234.986744,73.3994623 233.678294,76.3518638 232.846816,79.5006556 C232.66634,80.1552901 232.492309,80.8099245 232.311833,81.464559 C232.38918,81.4841981 232.466527,81.5103834 232.543874,81.5300225 C232.72435,80.855749 232.904826,80.1749291 233.091747,79.5006556 C233.29156,78.93767 233.484927,78.368138 233.69763,77.8116987 C236.037371,71.6188566 239.71779,66.290132 244.068547,61.4261978 C246.176248,59.0695137 248.522434,56.9354054 250.759046,54.7031018 C251.074879,54.3954236 251.390711,54.0877454 251.706544,53.7735209 C251.932139,53.5836769 252.157734,53.3938329 252.383329,53.1974425 C252.33821,53.1450718 252.293091,53.0992474 252.247972,53.0468766 C252.028822,53.2367206 251.809673,53.4265646 251.584078,53.6164086 Z M252.260863,60.1496606 C251.925693,60.4442461 251.584078,60.7388316 251.248909,61.0334172 C251.171562,61.125066 251.100661,61.2167148 251.023314,61.3083636 C251.055542,61.3410954 251.08777,61.3738271 251.119998,61.4000125 C251.210235,61.3214563 251.306919,61.2429002 251.397157,61.164344 C251.745218,60.8566658 252.086833,60.555534 252.434893,60.2478558 C252.441339,60.175846 252.447784,60.1038362 252.45423,60.0318264 C252.389774,60.0645581 252.325319,60.1038362 252.260863,60.1496606 Z M248.277503,63.9530869 C244.700213,67.6452253 241.799708,71.8479786 239.285937,76.3322248 C242.212224,72.1687495 245.054719,67.9398108 248.445087,64.1363845 C249.302348,63.2068036 250.159608,62.283769 251.016868,61.354188 C250.984641,61.3214563 250.958858,61.2887246 250.926631,61.2625392 C250.043588,62.1593884 249.160545,63.0562377 248.277503,63.9530869 Z M241.187379,75.6383122 C241.245389,75.710322 241.309845,75.7888781 241.367855,75.8608879 C241.670797,75.8608879 241.993075,75.919805 242.27668,75.8543416 C244.313479,75.3699121 246.292268,74.7676484 247.90366,73.2881745 C248.664237,72.5877156 249.469932,71.9265348 250.294965,71.2980857 C255.393408,67.4357423 258.893351,62.303408 261.619826,56.5622637 C261.954995,55.8487121 262.167699,55.0762435 262.438413,54.3299602 C262.373957,54.2906821 262.315947,54.251404 262.251492,54.212126 C262.013006,54.3561455 261.768074,54.4870724 261.542479,54.6441847 C254.665059,59.5343042 248.548216,65.2427168 243.494892,72.0771007 C242.650523,73.2096183 241.947956,74.4468775 241.187379,75.6383122 Z M235.263903,78.2830355 C239.724235,68.6926405 246.414734,60.9286756 254.426573,54.2644967 C245.937762,60.535895 239.202144,68.2540354 235.263903,78.2830355 Z M258.422825,64.8499361 C259.254303,64.6404531 262.483532,59.606314 262.593107,58.1923035 C261.162191,60.4769779 259.782839,62.6765497 258.422825,64.8499361 Z M252.480012,59.9205386 C252.531577,59.9794557 252.589587,60.0318264 252.641151,60.0907435 C252.918311,59.8354361 253.189025,59.586675 253.466184,59.3313675 C253.421065,59.2789968 253.375946,59.2331724 253.330827,59.1808016 C253.047222,59.4295627 252.763617,59.6783238 252.480012,59.9205386 Z M253.865809,58.9909576 C253.833581,58.9582259 253.807799,58.9254942 253.775571,58.8927624 C253.678888,58.9778649 253.575759,59.0695137 253.479075,59.1546162 C253.511303,59.1938943 253.543531,59.226626 253.575759,59.2659041 C253.672442,59.1742553 253.769126,59.0826064 253.865809,58.9909576 Z" id="Shape" fill="#FFFFFF"></path>
                    <path d="M35.5879215,14.5504297 C34.9432754,15.1135362 34.3315194,15.5640215 33.8250118,16.1138785 C29.9571351,20.3338652 26.852309,25.1169585 23.8461531,29.9662996 C17.978558,39.4596135 13.7817802,49.6750288 11.0782134,60.4999241 C9.65078272,66.210487 8.74301575,72.0137969 8.96009046,77.929728 C9.11138496,82.14309 9.90074754,86.230581 11.8017958,90.0199569 C12.3411935,91.0997965 13.0318858,92.1133883 13.7686242,93.0739818 C15.4460197,95.2601602 17.675969,95.8365163 20.2150853,94.7964254 C22.7673576,93.7497097 24.8131223,91.9676431 26.8259969,90.139203 C31.4700801,85.9125915 34.7722469,80.6657634 37.9954774,75.3460627 C41.0674135,70.2781037 43.376299,64.8391569 45.5470461,59.3339623 C45.9154153,58.3998679 46.3364087,57.4922727 46.7705581,56.5913022 C47.2770658,55.5247121 48.1322086,55.0477278 49.3096744,55.1669739 C49.803026,55.2199721 50.3029557,55.3060943 50.7699952,55.4783387 C51.934305,55.9023248 52.7499797,56.5250544 52.9078522,57.9825066 C53.1972851,60.6920428 52.7894478,63.2955825 51.9014149,65.7865009 C50.9410238,68.4562884 49.7372458,71.0465786 48.5400459,73.6236191 C46.3824548,78.2808415 43.988055,82.8188178 40.6529981,86.7473141 C35.7589501,92.5042505 30.0426494,97.2475951 23.0370565,100.175749 C18.5574238,102.050563 14.0712132,102.116811 9.90074754,99.1886565 C7.4142554,97.4463386 5.57240938,95.1077902 4.19102486,92.4181283 C2.22419643,88.5956286 1.29011738,84.4683888 0.553378967,80.2550268 C-0.367544045,74.9419509 0.00740318144,69.6553741 0.619159182,64.3621726 C1.17829101,59.526081 1.88213931,54.7098638 3.42139635,50.065891 C5.15799403,44.8124381 6.73014117,39.4861127 9.26267945,34.5373998 C12.8937473,27.4488821 16.9523866,20.6319804 22.1884917,14.5901784 C24.8262783,11.5427782 27.7995441,8.86636593 31.0753988,6.52781755 C31.9042295,5.93821187 32.7856844,5.59372316 33.8381678,5.52747533 C40.1662245,5.14323792 43.9222748,8.83324201 46.7968702,13.8283283 C48.2966591,16.4384928 48.8097448,19.3666469 48.8492129,22.3742983 C48.9084151,26.8460268 48.4874217,31.2581322 46.9942108,35.4979933 C45.5799362,39.5126118 43.1855364,42.924375 40.1728025,45.8525291 C38.2980664,47.6743444 35.9957589,48.4891927 33.3777063,47.4557265 C31.9173855,46.8793704 31.5358603,46.0512725 32.1015701,44.5871955 C32.7593723,42.8912511 33.581625,41.2615545 34.1736469,39.5457357 C35.3708468,36.087599 35.9036666,32.4638427 36.3904402,28.853336 C36.9758841,24.4876041 36.5154226,20.1351217 36.035227,15.7958889 C36.0089149,15.5375223 35.9365567,15.2791558 35.8641984,15.0207893 C35.8378864,14.9280423 35.7589501,14.8419201 35.5879215,14.5504297 Z M4.51334792,67.1909549 C4.76989076,66.2568605 5.07247975,65.3293909 5.27639841,64.3820469 C6.11838517,60.4866746 6.79592138,56.5515535 7.76946857,52.689305 C9.63762668,45.3026721 13.0121517,38.5056448 16.3011625,31.7019927 C17.37338,29.4760656 18.8337008,27.4422573 20.1098369,25.3223267 C20.2611314,25.070585 20.3861138,24.8055937 20.5242523,24.5406024 C20.438738,24.5074784 20.3598017,24.4677297 20.2742875,24.4346058 C11.571565,37.3860565 5.62503355,51.3908476 4.51334792,67.1909549 Z M10.3283189,36.849449 C7.60501803,42.5798863 5.42111489,48.5355661 4.05946443,54.7496125 C2.30971071,62.7258512 1.38220968,71.9078003 1.96107557,73.8024883 C2.03343381,73.1002613 2.092636,72.5239052 2.15183819,71.947549 C2.48073927,68.6351576 2.67150189,65.296267 3.16485351,62.0103746 C4.36863144,54.0076368 6.79592138,46.342763 9.81523326,38.8567583 C10.0651981,38.2207791 10.1572904,37.5185521 10.3283189,36.849449 Z M38.9164004,21.1685878 C38.6532796,25.3422011 38.4033148,29.4098178 38.1533499,33.3515637 C38.9098224,32.2054762 39.6531388,22.3080505 38.9164004,21.1685878 Z M40.7714025,33.1064467 C40.8569168,33.126321 40.935853,33.1395706 41.0213673,33.1594449 C41.8830881,32.059731 42.4882661,26.534662 41.7449497,25.4283233 C41.4094706,28.0782364 41.0871475,30.5890292 40.7714025,33.1064467 Z M13.2555385,46.5017578 C13.3607869,46.5348817 13.4660352,46.5680056 13.5712835,46.6011295 C13.8936066,45.6935343 14.2225077,44.7925638 14.5448307,43.8849685 C14.4856285,43.8584694 14.4264263,43.8319703 14.3606461,43.8054711 C13.9922769,44.7064416 13.6239077,45.6074121 13.2555385,46.5017578 Z M46.3166746,27.8132451 C46.2048483,27.8198699 46.0930219,27.8198699 45.9811955,27.8264947 C46.0601318,28.6347182 46.13249,29.4363169 46.2114263,30.2445405 C46.2837845,30.2379157 46.3561428,30.2379157 46.421923,30.2312909 C46.3890329,29.4230674 46.3495647,28.6214686 46.3166746,27.8132451 Z" id="Shape" fill="#FFFFFF"></path>
                    <path d="M233.209568,36.9770275 C232.218701,36.9770275 231.306578,36.9770275 230.401017,36.9770275 C228.780195,36.9770275 227.165935,36.9901609 225.545112,36.9638941 C224.947967,36.9507607 224.337698,36.8850937 223.747115,36.7668931 C223.445262,36.7077928 223.176218,36.4713917 222.815307,36.2743907 C222.145979,37.443263 221.365097,38.7303359 220.649835,40.0502422 C216.299207,48.0287805 211.869835,55.9547853 207.663571,64.0055573 C204.835335,69.42965 202.308952,75.0179102 200.570013,80.9148052 C200.130357,82.4120123 199.972868,83.9945866 199.710387,85.5377607 C199.59227,86.2009972 199.91381,86.6015658 200.524079,86.8839338 C201.199968,87.1991353 201.829923,87.6062706 202.473003,87.9740057 C201.377143,90.1016159 198.555469,90.449651 196.836216,88.7751429 C195.536933,87.5012035 194.906978,85.8660956 194.487008,84.139054 C193.561761,80.3566358 194.0736,76.6333179 195.031657,72.9428335 C196.252195,68.2345109 198.187995,63.7822895 200.425648,59.4942356 C203.411373,53.7615081 206.646456,48.1535478 209.737174,42.4799206 C211.075829,40.0239754 212.316053,37.5220634 213.720328,34.810017 C212.571972,34.810017 211.646725,34.7837503 210.728041,34.8165837 C208.641314,34.8888174 206.548025,35.0332848 204.461299,35.0464182 C203.345753,35.0595516 203.293257,34.9282176 203.280133,33.7856121 C203.273571,32.9976083 203.326067,32.2096046 203.312943,31.4216008 C203.293257,30.2264617 203.831344,29.3202573 204.914079,28.9656556 C206.817069,28.3352526 208.752869,27.6917162 210.721479,27.3896481 C213.096935,27.021913 215.524887,27.021913 217.926592,26.8314787 C218.182511,26.8117786 218.549985,26.6344778 218.641853,26.4243434 C220.7942,21.6569205 223.044978,16.9223311 224.98734,12.0695412 C226.076637,9.3443614 226.647534,6.40248061 227.47435,3.5 C228.917998,3.90056859 230.460076,4.53097162 231.719986,5.64731031 C232.730539,6.54038127 232.848656,7.80775402 232.678043,9.06856008 C232.238387,12.3847427 231.339388,15.576158 229.974485,18.6362394 C228.694889,21.5124532 227.677773,24.4806008 226.969074,27.6588827 C227.79589,27.9412507 228.675202,28.1448184 229.456084,28.5322536 C230.650375,29.1298231 231.864351,29.1954901 233.163633,29.0838562 C234.751645,28.9459556 236.359344,28.9984891 237.96048,28.9393889 C238.170465,28.9328222 238.492005,28.7883548 238.570749,28.6176206 C241.005263,23.4890293 243.518522,18.3998382 245.775862,13.1924466 C246.766729,10.9072356 247.232633,8.39875686 247.974143,5.88371145 C249.608089,6.46814759 251.373276,7.07885052 252.567566,8.59575781 C253.374697,9.62016273 253.243456,10.8875355 253.026909,12.0826746 C252.44945,15.3200568 251.438897,18.426105 250.008373,21.3942526 C248.689405,24.1325658 247.665727,26.9890795 246.878283,30.0491608 C247.606669,30.3183955 248.335055,30.5810634 249.056879,30.8568647 C250.559584,31.4347342 252.016356,32.0782706 253.053157,33.3850435 C254.122768,34.72465 254.313067,36.8588269 253.486251,38.3560341 C252.889106,39.4329726 251.852305,39.6825071 250.782693,39.5249064 C249.41779,39.3213387 248.085698,38.9273368 246.740481,38.5924352 C245.703679,38.3297673 244.67344,38.0473993 243.643201,37.7453311 C243.183859,37.6139972 242.934501,37.7847313 242.698268,38.1721665 C239.318821,43.8129603 235.880315,49.4143539 232.546802,55.0879811 C228.235546,62.422983 224.193334,69.909019 220.840134,77.7430899 C219.698341,80.4157361 218.622167,83.1146491 218.182511,86.0171297 C218.156263,86.2009972 218.123453,86.3782981 218.103766,86.5621656 C217.979088,88.0856396 217.98565,88.0659395 219.330867,88.7882763 C219.829581,89.0575109 220.2758,89.4186793 220.748266,89.7404475 C219.409611,91.9008913 216.620747,92.0978922 214.95399,90.186983 C213.365978,88.3680076 212.808205,86.1353302 212.591658,83.8107191 C212.152002,79.0301628 213.431599,74.5516746 215.196786,70.1979537 C218.064394,63.1124863 221.883498,56.5195213 225.79447,49.9790899 C228.21586,45.9340038 230.519134,41.8232507 232.874904,37.7453311 C233.019269,37.4892299 233.104575,37.2199953 233.209568,36.9770275 Z M218.431868,41.6984835 C218.609043,41.4095487 218.779656,41.120614 218.956831,40.8316793 C218.897773,40.7988458 218.832152,40.7660123 218.773094,40.7266121 C218.628729,41.0221136 218.484364,41.3110483 218.346562,41.6065497 C218.34,41.6853501 218.333438,41.7707171 218.326876,41.8495175 C218.359686,41.7969839 218.392496,41.7510171 218.431868,41.6984835 Z M217.408191,43.7472933 C217.650986,43.2810577 217.893781,42.8213889 218.136577,42.3551533 C218.077518,42.3223198 218.01846,42.296053 217.959402,42.2632195 C217.69692,42.7557219 217.441001,43.2482242 217.17852,43.7407266 C214.612765,48.2914485 211.981389,52.8093368 209.514065,57.4060256 C207.486396,61.1753103 205.662151,65.0496623 203.739475,68.8780473 C202.938907,70.5525554 202.131777,72.2270634 201.331209,73.9081382 C201.416515,73.9475384 201.508384,73.9869386 201.59369,74.0329054 C202.361448,72.3912309 203.135768,70.7495563 203.903526,69.1013151 C205.439042,66.1922678 206.954872,63.2766538 208.510073,60.3741732 C210.714917,56.2568534 212.939446,52.152667 215.150851,48.0353472 C215.912047,46.6103737 216.653557,45.1722668 217.408191,43.7472933 Z M195.812539,75.326545 C195.871597,75.3462451 195.937217,75.3725119 195.996276,75.392212 C196.061896,75.260878 196.134078,75.129544 196.186575,74.9916434 C196.862464,73.1792347 197.466171,71.3339925 198.214243,69.5478506 C200.845618,63.2635204 203.896964,57.1827578 207.14517,51.2004958 C209.979969,45.9799707 212.827892,40.7660123 215.66269,35.5389206 C215.800493,35.289386 215.879237,35.007018 215.98423,34.7377834 C215.912047,34.6983832 215.839865,34.658983 215.767683,34.6195828 C215.551135,34.9216509 215.301778,35.2040189 215.124603,35.5323539 C212.900074,39.59714 210.688669,43.6750596 208.464139,47.7332791 C204.120073,55.6527172 199.880999,63.6246888 196.803406,72.1482631 C196.42937,73.1923681 196.14064,74.2693066 195.812539,75.326545 Z M235.73595,36.8588269 C235.644082,36.7997266 235.558776,36.7406263 235.466907,36.681526 C235.230674,37.0229943 234.961631,37.3513293 234.751645,37.7124977 C232.678043,41.2585147 230.611002,44.8110984 228.543962,48.3636821 C223.82586,56.460421 219.134006,64.5637266 215.675814,73.3040019 C215.24272,74.3940738 214.875246,75.5169792 214.481524,76.6201845 C214.540582,76.6464513 214.606203,76.6727181 214.665261,76.6989849 C214.744005,76.5610842 214.848998,76.4231836 214.908056,76.2787162 C215.583946,74.6042082 216.154842,72.8837333 216.955411,71.2683255 C219.317743,66.4812025 221.640703,61.6678127 224.219582,56.9988903 C227.815576,50.4912924 231.628118,44.101895 235.342228,37.6599641 C235.486593,37.3972961 235.60471,37.1280615 235.73595,36.8588269 Z M217.204768,74.6698752 C217.27695,74.696142 217.355695,74.7289754 217.427877,74.7552422 C218.412182,72.7655327 219.317743,70.7364229 220.400478,68.8058137 C225.591047,59.4811022 230.820987,50.1760909 236.031242,40.8579461 C236.470898,40.076509 236.838372,39.2556717 237.238656,38.4479679 C237.159912,38.4085677 237.081167,38.3691675 236.995861,38.3232006 C230.171346,50.3205582 222.480643,61.8385469 217.204768,74.6698752 Z M217.578804,36.2678241 C214.40278,39.9648751 199.703824,68.6219461 198.857322,72.5816651 C199.041059,72.410931 199.191986,72.2007966 199.296978,71.9775289 C200.412524,69.6135175 201.436201,67.1969726 202.650178,64.8789281 C207.217353,56.1386528 211.850149,47.431211 216.443572,38.7040691 C216.85698,37.9160653 217.204768,37.0820946 217.578804,36.2678241 Z M236.44465,46.6826074 C236.385592,46.6497739 236.326533,46.6103737 236.274037,46.5775402 C230.420703,55.8497181 225.033274,65.3779972 220.236427,75.2411779 C225.636981,65.7194655 231.037534,56.1977531 236.44465,46.6826074 Z M239.686295,28.9525222 C239.797849,29.0181892 239.909404,29.0772895 240.020958,29.1429565 C241.497416,27.1795137 242.271736,24.8549026 243.354471,22.6878922 C243.288851,22.6550587 243.223231,22.6156585 243.151048,22.582825 C241.99613,24.7038685 240.841213,26.8314787 239.686295,28.9525222 Z M219.750837,26.7920785 C219.823019,26.824912 219.88864,26.8577455 219.960822,26.890579 C220.689208,26.3849433 222.953109,21.6569205 222.887489,20.6062488 C221.798191,22.7535591 220.774514,24.7695355 219.750837,26.7920785 Z M201.390267,74.2036396 C201.370581,74.1839395 201.350895,74.1642394 201.337771,74.151106 C201.318085,74.1839395 201.298399,74.216773 201.291837,74.2561732 C201.291837,74.2693066 201.324647,74.2890067 201.337771,74.3087068 C201.357457,74.2693066 201.370581,74.2364731 201.390267,74.2036396 Z M218.235007,42.1056188 C218.215321,42.0662186 218.195635,42.0333851 218.175949,42.0005516 C218.156263,42.0202517 218.123453,42.0399518 218.130015,42.0530852 C218.136577,42.0924854 218.162825,42.1253189 218.175949,42.1581523 C218.195635,42.1384522 218.215321,42.1253189 218.235007,42.1056188 Z" id="Shape" fill="#FFFFFF"></path>
                    <path d="M90.6013034,49.645877 C89.422857,50.8028169 88.2049097,51.9267014 87.0791313,53.1299189 C80.6141349,60.0318918 74.6363176,67.3239188 69.6657756,75.3960538 C66.7756194,80.0833132 63.9842156,84.8234612 61.7589929,89.8809414 C61.3047314,90.9122707 60.652965,91.8510448 60.1197015,92.8493186 C59.7773596,93.4839828 59.2177621,93.655871 58.6713317,93.3583722 C57.5718873,92.7633745 56.4658594,92.1287104 55.511252,91.3419912 C55.1359926,91.0312702 54.9516546,90.2313289 55.0109061,89.695831 C55.30058,87.1042856 55.537586,84.492907 56.0971835,81.9476392 C58.8754202,69.3138554 62.9506063,57.0701257 67.2891323,44.9057289 C70.2846245,36.4964286 73.4710382,28.1532391 77.2433833,20.0612708 C80.1467065,13.8204064 84.0968061,8.31998356 89.699364,4.16822206 C92.5039347,2.09234132 95.5586784,0.664346921 99.1071846,0.512291962 C101.148069,0.426347854 103.090202,0.783346454 104.861163,1.82789791 C106.770378,2.95178239 107.560398,4.76983082 107.836905,6.87876699 C108.534756,12.2403571 106.928382,17.0400049 104.255481,21.5818204 C101.154653,26.8508553 96.9214628,31.0753387 92.1418423,34.7907686 C88.8303421,37.3624807 85.3674215,39.709416 81.6411608,41.6266307 C80.4758815,42.2216283 79.2447671,42.6976265 78.0202362,43.1604024 C77.0787958,43.5240121 76.3941119,44.138843 76.0056854,45.0445617 C74.9391585,47.5369408 73.7607121,49.9896534 72.8916902,52.5481434 C70.673051,59.0534512 68.5926652,65.6050366 66.4596114,72.1433999 C66.4266939,72.2425661 66.4266939,72.3483435 66.5188629,72.5268428 C66.6768669,72.3218992 66.8546214,72.1301777 66.9994583,71.918623 C68.9086731,69.0428009 70.7718035,66.1405345 72.7205193,63.2911568 C75.6896774,58.9410628 79.3435196,55.159522 82.9644442,51.3713702 C86.1376909,48.0526055 89.4821085,44.91234 93.2478702,42.2612949 C94.4526505,41.415076 95.6969319,40.6085236 97.2045532,40.410191 C99.574613,40.09947 100.970315,41.3291318 100.891313,43.7289558 C100.825478,45.7519478 100.055208,47.5964406 99.1993535,49.3748225 C97.8365692,52.1977559 96.3223643,54.9347451 94.9003285,57.7246231 C91.9640878,63.4762672 90.2326275,69.6245764 89.0344306,75.9447738 C88.6460041,77.9677659 88.2904952,79.9973691 88.0534892,82.0401944 C87.9218192,83.1508567 88.0271552,84.3011855 88.1259077,85.42507 C88.2180767,86.4563993 88.8698431,87.0778413 89.8639515,87.3356736 C90.1667925,87.4150066 90.4762169,87.4877286 90.7856414,87.5538394 C91.9509208,87.8182828 92.1550093,88.3405585 91.4769088,89.3454435 C90.4301324,90.8924374 87.7835657,91.560157 85.8282664,90.6544384 C83.3002027,89.4842763 81.9176678,87.3356736 81.3119859,84.7044617 C80.5483,81.3592526 80.8050564,77.9942102 81.3646539,74.635779 C82.7142712,66.5107553 85.9928539,59.1261731 89.7981165,51.9267014 C90.173376,51.2193153 90.3379635,50.4061518 90.6013034,49.645877 C90.6408044,49.6524881 90.6737219,49.6524881 90.7132229,49.6590992 C90.7066394,49.6260437 90.6934724,49.5929883 90.6868889,49.5599329 C90.6473879,49.5797661 90.6210539,49.6128216 90.6013034,49.645877 Z M59.8234441,80.2750346 C59.3625991,82.1393606 58.9083377,84.0102978 58.4474927,85.8746238 C58.5659957,85.9010681 58.6844987,85.9275125 58.8030017,85.9539568 C59.1914281,84.1292973 59.5864381,82.2980267 59.9748646,80.4733672 C60.639798,78.0206546 61.3047314,75.567942 61.9762484,73.1152294 C63.6155397,67.8660277 65.2614145,62.6168261 66.9007058,57.3676245 C66.7953699,57.3345691 66.6900339,57.3015136 66.5846979,57.2684582 C64.7479016,62.4846044 63.1415277,67.7734726 61.7063249,73.1152294 C61.0808924,75.5084422 60.4488765,77.895044 59.8234441,80.2750346 Z M72.1280043,36.8269828 C72.6810183,35.4650993 73.2274487,34.1098268 73.7804626,32.7479433 C73.7014607,32.7148879 73.6224587,32.6884435 73.5434567,32.6553881 C73.0233602,33.9842162 72.4966803,35.3130443 71.9765838,36.6418725 C70.8573889,39.5243056 69.7381941,42.4001276 68.6124157,45.2825608 C68.7506692,45.3354495 68.8955061,45.3883381 69.0337596,45.4412268 C70.067369,42.5720159 71.1009784,39.6961938 72.1280043,36.8269828 Z M77.0261278,39.9804705 C77.0985463,40.0399702 77.1643813,40.09947 77.2367998,40.1655809 C77.5923088,40.0267481 77.9873187,39.947415 78.3099102,39.7490825 C80.9169759,38.1756442 83.5767096,36.6749279 86.0916064,34.9626568 C91.1872349,31.4918371 95.8417689,27.4987417 99.6206975,22.5734832 C101.852504,19.6579946 103.893389,16.6102844 104.584656,12.8882434 C104.986249,10.7264186 104.933581,8.57781588 104.202813,6.48210188 C103.860471,5.4904391 103.40621,5.10038507 102.431852,5.40449499 C101.069067,5.82760444 99.6996995,6.34988017 98.4883356,7.09032171 C95.7035154,8.7893706 93.4124576,11.1032504 91.2596534,13.5361298 C89.0936821,15.9822313 86.8355418,18.3952774 85.387172,21.3504324 C83.1619492,25.8856369 81.0749799,30.4869522 78.9748436,35.0816564 C78.2506587,36.6749279 77.6713107,38.3409213 77.0261278,39.9804705 Z M69.922532,47.3584415 C70.014701,47.4047191 70.1134535,47.4443856 70.2056225,47.4906632 C71.6342419,43.8148999 73.0496942,40.1325254 74.4848971,36.4633732 C75.9003494,32.8338874 77.3289688,29.2110127 78.7575881,25.588138 C74.9654925,32.5033331 72.6415173,40.0135259 69.922532,47.3584415 Z M84.2811441,80.1097575 C85.216001,75.5877752 86.1574414,71.0591819 87.0922983,66.5371996 C87.0132963,66.5239775 86.9342943,66.5041442 86.8552923,66.490922 C85.2752525,70.8806826 84.741989,75.4819979 84.2811441,80.1097575 Z M82.4048468,81.3394193 C83.0236957,77.4521013 83.6425446,73.5647832 84.2548101,69.6774651 C83.1619492,73.4920612 82.2534263,77.3331017 82.4048468,81.3394193 Z M63.9578816,59.1592286 C64.0368836,59.1856729 64.1093021,59.2121173 64.1883041,59.2385616 C64.5438131,58.260121 64.8927386,57.2882915 65.2482475,56.3098509 C65.175829,56.2834065 65.096827,56.2569622 65.0244085,56.2305178 C64.6623161,57.2089584 64.3068071,58.180788 63.9578816,59.1592286 Z M88.2575777,74.1928363 C88.1983262,74.1862252 88.1390747,74.1862252 88.0798232,74.1796141 C87.9020687,75.1316104 87.7177307,76.0836066 87.5399762,77.042214 C87.5860607,77.0488251 87.6387287,77.0620472 87.6848132,77.0686583 C87.8757347,76.110051 88.0666562,75.1514436 88.2575777,74.1928363 Z" id="Shape" fill="#FFFFFF"></path>
                    <path d="M133.764461,82.9366574 C138.095892,79.2678009 141.811385,75.046014 145.26196,70.5835396 C148.467483,66.4463185 151.533925,62.2050164 154.116888,57.6709863 C155.944831,54.4639895 157.49461,51.1008711 159.2497,47.8483388 C160.547805,45.4414649 161.998238,43.1191568 163.349327,40.7448082 C163.899034,39.7755536 164.6673,39.4763206 165.779961,39.5738966 C168.144366,39.7885637 169.581554,41.5644463 168.77355,43.7306329 C167.826463,46.2806182 166.674064,48.7590478 165.481927,51.2114572 C162.302895,57.736037 159.00465,64.2020712 155.871979,70.7461662 C154.322201,73.9791834 152.977735,77.3227866 152.216092,80.8420265 C151.990911,81.8698268 151.904812,82.9561725 151.957796,84.003488 C152.037271,85.6102389 153.037342,86.1501593 154.58712,85.519168 C155.070598,85.3240161 155.527584,85.0442983 156.017684,84.8621565 C156.600507,84.6409843 156.878672,84.9467223 156.686606,85.4606224 C156.507785,85.9485023 156.222997,86.4754125 155.832241,86.8071708 C151.845205,90.1702892 147.871415,88.0691533 146.215669,84.4588425 C145.182484,82.19508 145.348058,79.8532567 145.838159,77.4984233 C146.109701,76.1974104 146.321637,74.8833873 146.560064,73.5693643 C146.473966,73.543344 146.387867,73.5108187 146.301768,73.4847985 C145.493764,74.5646392 144.732121,75.6705002 143.877756,76.7113105 C141.486859,79.6255795 139.082716,82.5203332 136.638836,85.3890667 C136.135489,85.9810276 135.473191,86.4428872 134.863876,86.9372721 C133.320721,88.1862445 131.651729,88.2447901 129.896639,87.4186469 C128.062072,86.5534733 127.028887,85.1548844 127.002395,83.1318093 C126.956034,80.17851 127.585218,77.3227866 128.671387,74.6101746 C131.578876,67.3505225 134.592334,60.1299008 137.572676,52.902774 C138.592616,50.4243444 139.599309,47.9394097 139.943704,45.2658281 C140.029803,44.6218267 140.142394,43.9322899 139.983442,43.3338239 C139.804622,42.6703073 139.354259,42.0718414 138.95688,41.4798805 C138.791305,41.232688 138.420418,41.128607 138.228352,40.8944247 C138.029662,40.6537373 137.75812,40.2634334 137.844219,40.0682815 C137.950186,39.8080789 138.367434,39.5023408 138.652222,39.5023408 C139.811245,39.5023408 141.003381,39.4633105 142.122666,39.7039979 C146.215669,40.5886866 148.063482,43.2102277 147.738955,47.373469 C147.474036,50.7105672 146.374621,53.8199881 145.023532,56.8448431 C142.215387,63.1352406 139.281406,69.3670925 136.466638,75.65749 C135.420207,77.9993133 134.579088,80.4322075 133.645247,82.8260713 C133.618755,82.9106371 133.58564,82.9952029 133.559148,83.0797688 C133.625378,83.0212232 133.698231,82.9756877 133.764461,82.9366574 Z M148.182695,80.4712379 C148.301909,80.5037632 148.427746,80.5427936 148.546959,80.5753189 C148.931092,78.7213755 149.321848,76.8739371 149.705981,75.0199937 C149.593391,75.0004785 149.487423,74.9744583 149.374832,74.9549431 C148.977453,76.7958763 148.580074,78.6368096 148.182695,80.4712379 Z M141.579581,52.5645106 C141.659057,52.5840258 141.738533,52.6100461 141.818008,52.6295613 C142.341224,50.9642647 143.460508,49.4680999 143.056506,47.5426007 C142.566406,49.2144023 142.076305,50.892709 141.579581,52.5645106 Z M141.625942,45.5910813 C141.546466,45.5780712 141.46699,45.558556 141.387515,45.5455459 C141.202071,46.7880132 141.02325,48.0239755 140.837807,49.2664429 C140.837807,49.279453 140.7782,49.285958 140.84443,49.2664429 C141.3544,48.1280565 141.784893,46.9246196 141.625942,45.5910813 Z M147.70584,75.956723 C147.566758,75.9437129 147.434298,75.9241977 147.295215,75.9111876 C147.123018,77.2317157 146.95082,78.5587489 146.778623,79.879277 C146.851476,79.885782 146.924328,79.8987922 146.997181,79.9052972 C147.235609,78.5912742 147.467413,77.2772511 147.70584,75.956723 Z M129.472768,83.3659916 C129.572113,83.3855068 129.67808,83.4115271 129.777425,83.4310423 C129.995984,82.4878079 130.214542,81.5445735 130.4331,80.6013392 C130.340379,80.581824 130.247657,80.5623088 130.154935,80.5427936 C129.923131,81.4795229 129.697949,82.4227572 129.472768,83.3659916 Z M128.658141,80.7704708 C128.565419,80.7509556 128.472697,80.7314404 128.373353,80.7119253 C128.247516,81.5510786 128.128302,82.3902319 128.002466,83.2293853 C128.088564,83.2423954 128.174663,83.2489005 128.267385,83.2619106 C128.399845,82.4357674 128.532304,81.6031191 128.658141,80.7704708 Z" id="Shape" fill="#FFFFFF"></path>
                    <path d="M170.708629,73.0409473 C169.244605,75.8558471 168.473024,78.822369 168.571945,81.9866591 C168.591729,82.665663 168.66427,83.3578515 168.835733,84.0104863 C169.303957,85.803584 170.444841,86.6408024 172.291359,86.8187937 C174.770969,87.0627078 177.059332,86.5287338 179.156449,85.2234641 C181.253565,83.9181945 183.304519,82.5404098 185.388446,81.2021788 C185.942402,80.8461962 186.509546,80.5033981 187.096475,80.2265227 C187.742757,79.916686 188.402227,79.9364628 188.903425,80.5165827 C189.411217,81.0967025 189.127645,81.7229682 188.718773,82.1580581 C187.835083,83.0875683 186.944797,84.0566322 185.902833,84.7751897 C182.39445,87.1879609 178.56952,88.9283204 174.29615,89.4095562 C170.299758,89.8644229 166.896889,88.6052992 164.146896,85.5926313 C162.93347,84.2609926 162.630114,82.6392939 162.306973,80.9780416 C161.462851,76.6469196 162.478436,72.5728961 163.909487,68.5384262 C165.716437,63.449193 168.717028,59.0389637 171.743998,54.641919 C174.896268,50.0734752 178.800334,46.2169966 183.001163,42.6308012 C184.359672,41.4705615 185.942402,40.6531199 187.683404,40.5278668 C189.886036,40.3696523 192.022721,40.8838494 193.935186,42.1034195 C197.225945,44.1997617 198.709754,48.2671929 197.674385,52.2752937 C197.133619,54.3650436 196.19717,56.2636176 195.016718,58.0501231 C192.543703,61.794533 189.747547,65.3082135 186.568899,68.4659113 C185.30931,69.725035 183.667228,70.6215839 182.130661,71.5774632 C181.181024,72.1707676 180.092897,72.546527 179.090502,73.0673164 C177.019764,74.1484489 174.830321,74.1484489 172.6145,73.7924662 C171.94184,73.6869899 171.315342,73.2848614 170.708629,73.0409473 Z M183.119867,52.2291478 C183.06711,52.2752937 183.014352,52.3280319 182.955,52.3741778 C182.875863,52.4664695 182.796727,52.5587613 182.645048,52.7301604 C182.823106,52.6840145 182.882458,52.6906068 182.908837,52.6576454 C182.961594,52.6114995 183.001163,52.5389845 183.047326,52.4796541 C183.100083,52.4269159 183.152841,52.3741778 183.205598,52.3214396 C183.238572,52.281886 183.27814,52.2423323 183.311114,52.2027787 C183.245167,52.2159632 183.185814,52.2225555 183.119867,52.2291478 Z M182.374665,52.9213362 C182.321908,52.9740744 182.26915,53.0268126 182.216393,53.0795507 C182.163635,53.1322889 182.110877,53.1850271 182.05812,53.2377653 C182.005362,53.2905034 181.952604,53.3432416 181.899847,53.3959798 C181.754763,53.547602 181.616274,53.692632 181.471191,53.8442542 C181.438217,53.864031 181.411838,53.8904001 181.392054,53.9233614 C181.332702,53.9760996 181.279944,54.03543 181.220592,54.0881682 C180.864478,54.4902967 180.501769,54.8924253 180.145655,55.2945538 C179.90165,55.5714292 179.651052,55.8483046 179.407047,56.12518 C179.275153,56.2833945 179.149854,56.441609 179.01796,56.5998235 C179.070717,56.6393771 179.123475,56.6789307 179.169638,56.7184843 C179.294937,56.5734544 179.426832,56.4284244 179.552131,56.2833945 C179.796135,56.0065191 180.033545,55.7296437 180.277549,55.4593606 C180.627068,55.057232 180.976588,54.6551035 181.326107,54.2595673 C181.378865,54.2068291 181.431622,54.1540909 181.48438,54.1013528 C181.537138,54.0486146 181.589895,53.9958764 181.642653,53.9431383 C181.781142,53.7981083 181.919631,53.6530783 182.064714,53.5080484 C182.117472,53.4553102 182.17023,53.402572 182.222987,53.3498339 C182.275745,53.2970957 182.328503,53.2443575 182.38126,53.1916194 C182.434018,53.1322889 182.49337,53.0795507 182.546128,53.0202203 C182.565912,52.9542976 182.585696,52.8883749 182.60548,52.8290445 C182.532938,52.8554135 182.453802,52.8883749 182.374665,52.9213362 Z M181.458001,46.3092884 C181.504164,46.2367735 181.556922,46.1642585 181.603085,46.0917435 C181.530543,46.1312971 181.464596,46.1708507 181.392054,46.2104044 C181.26016,46.249958 181.128266,46.2829193 180.996372,46.322473 C181.075508,46.4015802 181.14805,46.4740952 181.227187,46.5532025 C181.312918,46.4675029 181.385459,46.3883957 181.458001,46.3092884 Z M189.371649,59.2828778 C190.829079,57.6875482 191.831475,55.83512 192.490945,53.791516 C191.369845,55.5648369 190.327882,57.3843037 189.292513,59.2037705 C189.285918,59.2169551 189.351865,59.2696932 189.384839,59.3026546 C189.332081,59.3092468 189.285918,59.3092468 189.23316,59.3158391 C189.239755,59.3356159 189.24635,59.361985 189.24635,59.3817618 C189.285918,59.3488005 189.332081,59.3158391 189.371649,59.2828778 Z M179.255369,48.7022828 C179.56532,48.3528924 179.868677,48.0035021 180.178628,47.6475194 C179.967598,47.5684122 179.90165,47.6079658 179.848893,47.660704 C179.585105,47.9375794 179.327911,48.221047 179.064123,48.5045147 C172.561742,54.8990175 167.721227,62.3614683 164.694257,70.9577897 C163.975434,72.9882092 163.625915,75.1504741 163.104933,77.2534085 C163.197259,77.2797776 163.289585,77.2995544 163.388505,77.3259235 C163.480831,77.0094945 163.592941,76.6930655 163.665483,76.3700442 C163.896298,75.3482422 164.061165,74.3066634 164.338143,73.2914536 C165.927467,67.5166242 168.710433,62.3021379 172.185844,57.4765955 C174.375286,54.4441508 176.88787,51.6226589 179.255369,48.7022828 Z M191.112652,47.1596914 C191.000542,47.1069532 190.888432,47.0542151 190.776322,47.0014769 C189.523327,48.148532 188.257144,49.2889949 187.017339,50.4492346 C181.853684,55.2418156 177.422041,60.6408856 173.742195,66.6464445 C172.970614,67.9055682 172.350711,69.2635761 171.546157,70.7929829 C172.126491,70.7534293 172.443037,70.7929829 172.71342,70.7006911 C174.705022,70.0612408 176.624081,69.2965374 178.088106,67.7012078 C178.800334,66.9299121 179.538942,66.171801 180.323712,65.466428 C185.230173,61.0627909 188.296712,55.4923219 190.538912,49.3944713 C190.796106,48.6759137 190.928,47.904618 191.112652,47.1596914 Z M165.597732,74.8933755 C165.775789,74.4846547 165.97363,74.0891184 166.125308,73.6738054 C167.464034,69.8436959 169.172063,66.1915778 171.25599,62.7042664 C174.236798,57.7271018 177.824318,53.2377653 181.899847,49.1307804 C182.104282,48.92642 182.26915,48.6759137 182.447207,48.4451842 C182.387855,48.4056306 182.328503,48.366077 182.26915,48.3265234 C174.401665,55.7032746 168.393887,64.2666346 165.597732,74.8933755 Z M179.064123,56.7052998 C175.127083,61.0957523 172.185844,66.1256551 169.791965,71.4917637 C172.693636,66.4486763 175.41725,61.2935204 179.064123,56.7052998 Z M191.620444,51.0623158 C190.426802,53.4223488 189.23316,55.7889741 188.052708,58.1226381 C188.850667,57.8062091 191.561092,52.6708299 191.620444,51.0623158 Z M168.769786,74.2473329 C168.842328,74.2802943 168.914869,74.3066634 168.987411,74.3396247 C169.218226,73.5617367 169.442446,72.7772565 169.673261,71.9993685 C169.587529,71.9729994 169.501798,71.9532226 169.422662,71.9268535 C169.198442,72.6981492 168.987411,73.4760372 168.769786,74.2473329 Z M180.336901,47.0344382 C180.264359,47.1926527 180.211602,47.2783523 180.191818,47.3706441 C180.185223,47.3904209 180.290738,47.4695281 180.330306,47.4629359 C180.389659,47.4497513 180.462201,47.3904209 180.488579,47.3376827 C180.501769,47.3047214 180.442416,47.2387986 180.336901,47.0344382 Z M168.782975,74.4846547 C168.743407,74.4846547 168.703839,74.4780624 168.66427,74.4780624 C168.670865,74.5571697 168.67746,74.6362769 168.684055,74.7153842 C168.684055,74.7153842 168.730218,74.7219764 168.730218,74.7153842 C168.750002,74.6362769 168.769786,74.5571697 168.782975,74.4846547 Z M182.816511,47.8452876 L182.823106,47.9178026 L182.783537,47.9112103 L182.816511,47.8452876 Z" id="Shape" fill="#FFFFFF"></path>
                    <path d="M98,79.486161 C98.1128489,73.9769294 99.1882323,69.1753663 101.192959,64.5589874 C103.755293,58.6529325 106.722555,52.9783579 110.718732,47.8990184 C112.683631,45.399031 114.834397,43.0577729 117.536132,41.2919088 C119.089464,40.2800091 120.775559,39.638478 122.647523,39.5062035 C124.074729,39.4069976 125.973246,40.5114894 126.517576,41.8276204 C126.796379,42.4889927 126.816293,43.0643866 126.258687,43.6993041 C122.846668,47.6080146 119.39482,51.4770427 116.467387,55.7825766 C112.152577,62.1251373 108.567966,68.824839 106.277797,76.1660719 C105.461302,78.7784926 104.956801,81.4438231 105.189137,84.2017457 C105.202414,84.3340202 105.209052,84.4662946 105.228966,84.5985691 C105.494493,86.1858627 106.237968,86.5694587 107.479306,85.557559 C108.720644,84.5390456 109.895599,83.4080989 110.937792,82.1845601 C116.268242,75.9147504 121.001257,69.254731 124.214131,61.629108 C125.707719,58.0841523 126.437918,54.3738535 126.424641,50.5246665 C126.424641,49.7574746 126.484385,48.9902827 126.570681,48.2363183 C126.676892,47.2971696 127.168116,46.8342089 128.104098,46.7019345 C130.049082,46.4307718 131.230676,47.1847363 131.64888,49.1159435 C132.365803,52.4294189 131.921045,55.6899845 130.892129,58.8711854 C129.225949,64.0034347 126.603872,68.6727233 123.656525,73.1700552 C120.178124,78.4742613 116.27488,83.4345538 111.502036,87.6673367 C110.612522,88.4543698 109.683178,89.2347892 108.667538,89.836638 C106.915061,90.8617651 105.056374,90.5906024 103.337088,89.7572733 C100.476037,88.3683914 99.0289163,85.8551765 98.3783757,82.8723873 C98.1062107,81.6025524 98.0862962,80.2930352 98,79.486161 Z M112.457933,51.8937073 C108.494946,57.2375957 105.242243,62.9650801 103.423384,69.4200741 C106.244606,63.4875643 108.860045,57.4426211 112.457933,51.8937073 Z M100.422932,72.7335495 C102.553784,67.5285492 104.804124,62.0523863 107.127483,56.3778117 C103.815036,61.6489492 101.637717,67.1581807 100.422932,72.7335495 Z M113.44702,56.9399782 C111.16349,60.3460457 109.364546,64.0034347 107.705004,67.7269609 C107.764747,67.7600295 107.831129,67.7930981 107.890872,67.819553 C109.742922,64.2018464 111.594971,60.5709123 113.44702,56.9399782 Z" id="Shape" fill="#FFFFFF"></path>
                    <path d="M171.055895,121.457185 C172.332907,123.084548 173.609919,124.718499 175,126.497397 C173.210853,126.497397 171.574682,126.510574 169.945161,126.477632 C169.765581,126.471043 169.546095,126.253622 169.413073,126.088909 C168.841078,125.397115 168.295687,124.685556 167.71039,123.947643 C164.198607,125.594771 160.626965,125.752895 157.061973,124.244126 C154.421485,123.124079 152.512618,121.160702 151.235606,118.630713 C148.641676,113.465319 150.244592,107.179878 154.986829,103.753851 C159.649253,100.387121 166.094172,100.868082 170.251112,104.68942 C174.620887,108.701824 175.565344,116.285202 171.055895,121.457185 Z M164.870369,120.356903 C163.560102,118.690009 162.263136,117.036293 160.879707,115.270571 C162.628947,115.270571 164.165352,115.250806 165.708408,115.290337 C165.974452,115.296925 166.300356,115.474815 166.479936,115.679059 C167.078535,116.364264 167.630577,117.089001 168.215874,117.826914 C170.490552,114.466773 169.898603,110.204005 166.845747,107.542246 C164.125445,105.170381 159.828832,105.216501 156.988811,107.660839 C154.248556,110.019527 153.656608,114.545835 155.685195,117.602905 C157.633968,120.528205 161.837466,121.819553 164.870369,120.356903 Z" id="Shape" fill="#E4AF18"></path>
                    <path d="M106.006445,102.5 C108.636171,102.658518 111.233669,102.605679 113.753823,103.021789 C117.20856,103.589812 119.193745,106.971531 118.091581,110.135289 C117.737084,111.159051 116.944299,112.024296 116.344876,112.9688 C117.543721,113.602872 118.723231,114.494536 119.399998,115.947619 C121.056467,119.501066 119.316208,125.06241 113.766714,125.419075 C111.201442,125.584198 108.62328,125.445495 106,125.445495 C106.006445,117.869651 106.006445,110.313621 106.006445,102.5 Z M110.29264,121.25137 C111.381914,121.178716 112.406733,121.152297 113.418662,121.020198 C114.855987,120.841865 115.616545,120.095509 115.771235,118.833969 C115.919479,117.605454 115.223375,116.337309 113.94074,115.967434 C112.780567,115.630583 111.549494,115.551324 110.29264,115.346571 C110.29264,117.413911 110.29264,119.250079 110.29264,121.25137 Z M110.299086,111.628001 C111.188552,111.489297 112.0329,111.443063 112.825685,111.205286 C113.766714,110.921274 114.26301,110.049425 114.217892,109.078501 C114.172774,108.133997 113.637806,107.367827 112.683886,107.149864 C111.923328,106.971531 111.130543,106.958322 110.299086,106.865853 C110.299086,108.470848 110.299086,109.937141 110.299086,111.628001 Z" id="Shape" fill="#E4AF18"></path>
                    <path d="M139,125.493634 C137.490566,125.493634 136.09434,125.519097 134.698113,125.468171 C134.490566,125.461806 134.232704,125.143519 134.106918,124.907986 C132.660377,122.202546 131.238994,119.484375 129.805031,116.772569 C129.685535,116.549769 129.528302,116.346065 129.389937,116.135995 C129.327044,116.161458 129.27044,116.180556 129.207547,116.206019 C129.207547,119.26794 129.207547,122.323495 129.207547,125.436343 C127.767296,125.436343 126.402516,125.436343 125,125.436343 C125,118.141204 125,110.871528 125,103.58912 C125.069182,103.557292 125.138365,103.5 125.201258,103.5 C127.610063,103.538194 130.031447,103.493634 132.433962,103.652778 C135.459119,103.850116 137.408805,105.715278 137.886792,108.624421 C138.402516,111.788194 137.169811,114.213542 134.383648,115.499421 C134.226415,115.569444 134.081761,115.658565 133.874214,115.766782 C135.584906,119.000579 137.264151,122.196181 139,125.493634 Z M129.226415,107.554977 C129.226415,109.127315 129.226415,110.559606 129.226415,112.112847 C130.301887,112.023727 131.327044,112.010995 132.333333,111.83912 C133.402516,111.66088 133.867925,110.998843 133.880503,109.910301 C133.893082,108.834491 133.36478,108.000579 132.377358,107.828704 C131.352201,107.650463 130.295597,107.644097 129.226415,107.554977 Z" id="Shape" fill="#E4AF18"></path>
                    <path d="M103,125.493642 C101.589997,125.493642 100.252471,125.519073 98.9083558,125.468211 C98.6909254,125.461853 98.3746631,125.201183 98.2824199,124.985017 C97.7684936,123.789747 97.2875112,122.581762 96.8328841,121.367419 C96.6681641,120.92873 96.4639114,120.744353 95.9368074,120.744353 C93.327643,120.776142 90.7184786,120.776142 88.115903,120.744353 C87.588799,120.737995 87.3779575,120.941445 87.2132375,121.367419 C86.738844,122.575404 86.244684,123.783389 85.7241689,124.972301 C85.6319257,125.182109 85.3683738,125.461853 85.1772986,125.461853 C83.8134172,125.506358 82.442947,125.487284 81,125.487284 C81.0790656,125.232972 81.1185984,125.042237 81.1910752,124.864218 C83.9386044,117.972345 86.6927224,111.086829 89.427074,104.194955 C89.6247379,103.699045 89.8553459,103.476522 90.441749,103.501953 C91.5486673,103.552815 92.6555855,103.489237 93.7625037,103.5401 C94.0128781,103.552815 94.3950285,103.781697 94.4806828,104.00422 C97.3138664,111.05504 100.120695,118.112217 102.927523,125.169394 C102.940701,125.232972 102.953878,125.309265 103,125.493642 Z M94.9221324,116.605414 C93.9667565,114.189443 93.0311471,111.837051 92.0230608,109.30664 C91.0149745,111.856125 90.0793651,114.202159 89.1239892,116.605414 C91.1203953,116.605414 92.9784367,116.605414 94.9221324,116.605414 Z" id="Shape" fill="#E4AF17"></path>
                    <path d="M179.004143,102.5 C180.450656,102.5 181.814693,102.5 183.267551,102.5 C183.267551,102.79998 183.267551,103.080396 183.267551,103.354291 C183.267551,107.814863 183.261206,112.268914 183.273895,116.729486 C183.273895,117.30336 183.311961,117.877235 183.375405,118.444589 C183.565735,120.270554 184.682342,121.248749 186.503172,121.229185 C188.279592,121.209622 189.472331,120.127085 189.63094,118.385897 C189.681695,117.818543 189.700728,117.238147 189.700728,116.670794 C189.707072,112.236307 189.700728,107.808342 189.700728,103.373855 C189.700728,103.093439 189.700728,102.813023 189.700728,102.5 C191.153585,102.5 192.517622,102.5 193.995857,102.5 C193.995857,102.780416 193.995857,103.054311 193.995857,103.334727 C193.995857,107.430106 194.008545,111.518964 193.989512,115.614343 C193.983168,116.885997 193.945102,118.170694 193.780149,119.429305 C193.329699,122.781256 190.842712,125.168053 187.56268,125.45499 C185.14548,125.663672 182.9313,125.174574 181.091436,123.40078 C179.695678,122.05087 179.207163,120.322724 179.156408,118.464152 C179.054898,114.766573 179.048554,111.062472 179.010488,107.364893 C178.991455,105.767173 179.004143,104.182496 179.004143,102.5 Z" id="Path" fill="#E4AF17"></path>
                    <path d="M202.511194,107.611014 C202.511194,108.928073 202.511194,110.130049 202.511194,111.421534 C205.338486,111.421534 208.144989,111.421534 210.99307,111.421534 C210.99307,112.834496 210.99307,114.157948 210.99307,115.538942 C208.200426,115.538942 205.414712,115.538942 202.559701,115.538942 C202.559701,117.501744 202.559701,119.40061 202.559701,121.395379 C205.345416,121.395379 208.151919,121.395379 211,121.395379 C211,122.808341 211,124.131793 211,125.5 C206.675906,125.5 202.372601,125.5 198,125.5 C198,118.17306 198,110.858907 198,103.5 C202.331023,103.5 206.634328,103.5 210.99307,103.5 C210.99307,104.849026 210.99307,106.166085 210.99307,107.611014 C208.165778,107.611014 205.338486,107.611014 202.511194,107.611014 Z" id="Path" fill="#E4AE16"></path>
                    <path d="M139.387004,22.9123402 C141.67977,24.8778518 144.262352,26.4878271 147.508291,26.5482012 C148.725518,26.5683258 149.775296,26.1725402 150.664065,25.3004703 C150.812193,25.1528892 151.044046,25.0992234 151.230816,24.9985999 C151.288779,25.2400962 151.411146,25.495009 151.385385,25.729797 C151.237257,26.8769045 150.5739,27.6953086 149.66581,28.2722164 C146.954421,30.0163563 144.249472,29.8419423 141.596045,28.1313436 C140.159846,27.1988995 138.755849,26.2060814 137.384053,25.2736374 C136.579009,25.8371287 135.838368,26.3603707 135.084847,26.8567798 C134.827233,27.0244855 134.530976,27.1452337 134.24116,27.2525654 C133.32019,27.5812687 132.360577,27.883139 131.561973,27.0580267 C130.724727,26.1859567 130.9759,25.1126398 131.33656,24.1198217 C131.896871,22.5500958 133.159181,21.8524398 134.646903,21.798774 C135.761084,21.7585246 136.392239,21.2218661 136.77222,20.2760056 C137.68031,18.0354567 138.569079,15.7881995 139.399884,13.5208175 C140.526947,10.448448 141.583165,7.33582903 143.425106,4.62570392 C144.075582,3.67313519 144.841984,2.78764876 145.653469,1.97595287 C146.671045,0.956301838 147.952676,0.493433934 149.382434,0.500070323 C151.134211,0.513558626 152.364319,1.48625205 152.821584,3.24380844 C153.491381,5.84660187 152.20331,9.81787431 150.161717,11.4546826 C149.176343,12.2462538 148.081483,12.4609171 146.890017,12.1120891 C146.671045,12.0450068 146.471394,11.8840093 146.21378,11.7431365 C149.48548,9.59650271 150.296965,6.34971915 150.445093,2.66019238 C149.176343,2.55956893 148.165207,2.98218745 147.456768,3.85425741 C146.503596,5.03490598 145.537543,6.26251216 144.887067,7.63099118 C143.959656,9.58308625 143.283418,11.6760542 142.555658,13.7287727 C141.486559,16.7273517 140.475424,19.7460554 139.387004,22.9123402 Z M132.78564,25.495009 C133.416795,24.971767 133.899822,24.5759814 134.382848,24.1734876 C133.178502,24.0862806 132.817842,24.3747345 132.78564,25.495009 Z M139.773425,17.1566785 C139.709022,17.1097209 139.638178,17.0694715 139.573774,17.0225139 C139.341921,17.666504 139.110069,18.3037859 138.878216,18.947776 C139.103628,18.8538608 139.200233,18.7062797 139.258197,18.5452822 C139.438527,18.0891225 139.605976,17.6195464 139.773425,17.1566785 Z M139.68326,16.8883493 C139.728343,16.9084739 139.779865,16.9218904 139.824948,16.9420151 C139.895792,16.7407682 139.966636,16.5395213 140.03748,16.3382744 C139.985957,16.3181497 139.934434,16.3047332 139.882911,16.2846085 C139.818508,16.4791472 139.754104,16.6803941 139.68326,16.8883493 Z M140.159846,15.8150324 C140.127645,15.8150324 140.095443,15.8150324 140.063241,15.8083241 C140.069681,15.8888229 140.076122,15.9693217 140.082562,16.0498204 C140.082562,16.0498204 140.121204,16.0498204 140.121204,16.0498204 C140.134085,15.9760299 140.146966,15.8955311 140.159846,15.8150324 Z M138.833133,19.4374768 C138.852454,19.4374768 138.878216,19.4374768 138.897537,19.4374768 C138.903977,19.3502698 138.910418,19.2630628 138.916858,19.1758558 C138.891096,19.1758558 138.858895,19.1758558 138.833133,19.1691476 C138.833133,19.2630628 138.833133,19.3502698 138.833133,19.4374768 Z" id="Shape" fill="#FFFFFF"></path>
                    <path d="M165.183806,11.3543683 C165.36088,10.5860891 165.557628,9.90896164 165.669119,9.21881253 C165.760934,8.65888022 166.069173,8.61981518 166.502019,8.73701031 C167.41362,8.98442226 168.115355,9.82432071 167.98419,10.7749035 C167.813674,11.9728982 167.571018,13.1839145 167.164405,14.3233117 C166.010149,17.5461778 164.705052,20.7169572 163.577029,23.9463342 C163.11795,25.2550132 162.914643,26.6613548 162.711337,28.0351422 C162.606404,28.7448238 162.947434,28.8750407 163.616378,28.5364769 C163.891826,28.3932384 164.186948,28.2825542 164.475512,28.1523373 C164.52142,28.2109349 164.56077,28.2695325 164.606678,28.32813 C164.488629,28.5169444 164.403371,28.738313 164.239415,28.8815515 C163.314698,29.7149391 162.285049,29.5912331 161.229166,29.1810502 C160.271658,28.8099323 159.786346,28.1914024 159.832254,27.1626896 C159.88472,25.9972491 160.061793,24.8383194 160.179842,23.6793898 C160.192959,23.5621946 160.179842,23.4384887 160.179842,23.2366526 C159.08461,24.5257991 158.06152,25.7628588 157.005637,26.9673643 C156.441626,27.6119376 155.831706,28.2239566 155.20867,28.8229539 C154.290512,29.7149391 153.221513,29.7149391 152.316471,28.8164431 C151.417987,27.9309688 151.037607,26.817615 151.004816,25.5805553 C150.932675,23.0022623 151.680318,20.5997621 152.62471,18.2493486 C153.910132,15.0525258 155.641516,12.1356692 158.389433,9.94151585 C158.992795,9.45971363 159.681413,9.04301983 160.402824,8.76305367 C161.924344,8.17056717 163.235999,8.59377182 164.226298,9.88291828 C164.554212,10.3061229 164.816543,10.7814143 165.183806,11.3543683 Z M155.451326,14.8051139 C155.497234,14.7074513 155.543142,14.6032778 155.58905,14.5056152 C155.5497,14.4925935 155.516909,14.4795718 155.477559,14.4600393 C155.444768,14.5511911 155.411977,14.635832 155.379185,14.7269838 C155.366069,14.798603 155.35951,14.8702223 155.346394,14.9483524 C155.385743,14.9027765 155.418535,14.8506897 155.451326,14.8051139 Z M154.48726,27.2147763 C154.585634,27.2473305 154.67745,27.2733738 154.775824,27.305928 C154.893873,27.2147763 155.031597,27.143157 155.129971,27.0324727 C158.671439,23.1455008 161.452148,18.7767267 163.413072,13.9131287 C163.714753,13.164382 163.642612,12.1682234 163.465538,11.3413466 C163.249115,10.3321663 162.521147,10.1303302 161.701362,10.7879251 C161.078326,11.2892599 160.520873,11.9012789 160.061793,12.552363 C157.60244,16.0356628 156.021896,19.9161238 154.97913,24.0179535 C154.716799,25.059688 154.651217,26.1469984 154.48726,27.2147763 Z M151.457337,26.4660296 C151.509803,26.4660296 151.562269,26.4725404 151.614735,26.4725404 C151.686876,25.4503384 151.759017,24.4281365 151.831158,23.4059345 C151.752459,23.3994236 151.680318,23.3994236 151.601619,23.3929128 C151.555711,24.4151148 151.503245,25.4438276 151.457337,26.4660296 Z M156.88103,13.001611 C156.815447,12.9495243 156.749865,12.8909267 156.684282,12.83884 C156.290785,13.3011097 155.890731,13.7633793 155.497234,14.225649 C155.562817,14.2777358 155.6284,14.3363333 155.693982,14.3884201 C156.087479,13.9326612 156.480975,13.4703915 156.88103,13.001611 Z" id="Shape" fill="#FFFFFF"></path>
                    <path d="M78.9929947,107.613821 C76.4991243,107.613821 74.0683012,107.613821 71.5954466,107.613821 C71.5954466,108.87863 71.5954466,110.092334 71.5954466,111.389082 C74.0402802,111.389082 76.4851138,111.389082 79,111.389082 C79,112.800813 79,114.135889 79,115.554007 C76.5481611,115.554007 74.0963222,115.554007 71.5534151,115.554007 C71.5534151,118.907666 71.5534151,122.184669 71.5534151,125.5 C69.9912434,125.5 68.5201401,125.5 67,125.5 C67,118.153891 67,110.846109 67,103.5 C71.0070053,103.5 74.971979,103.5 78.9929947,103.5 C78.9929947,104.860627 78.9929947,106.208479 78.9929947,107.613821 Z" id="Path" fill="#E4AE16"></path>
                    <path d="M146,103.5 C146,110.854651 146,118.15814 146,125.5 C144.658385,125.5 143.354037,125.5 142,125.5 C142,118.17093 142,110.867442 142,103.5 C143.310559,103.5 144.63354,103.5 146,103.5 Z" id="Path" fill="#E4AE16"></path>
                    <path d="M251,60.3709677 C251.282609,60.0806452 251.570652,59.7903226 251.853261,59.5 C251.902174,59.5322581 251.951087,59.5645161 252,59.5967742 C251.706522,59.9 251.418478,60.1967742 251.125,60.5 C251.081522,60.4548387 251.043478,60.416129 251,60.3709677 Z" id="Path" fill="#FFFFFF"></path>
                    <path d="M252,60.3129496 C252.287582,60.0395683 252.575163,59.7733813 252.862745,59.5 C252.908497,59.557554 252.954248,59.6079137 253,59.6654676 C252.718954,59.9460432 252.444444,60.2194245 252.163399,60.5 C252.111111,60.442446 252.052288,60.3776978 252,60.3129496 Z" id="Path" fill="#FFFFFF"></path>
                    <path d="M252.03,53.22 C252.29,53.02 252.55,52.82 252.81,52.62 C252.86,52.69 252.92,52.76 252.97,52.82 C252.73,53.01 252.49,53.2 252.24,53.38 C252.17,53.33 252.1,53.27 252.03,53.22 Z" id="Path" fill="#FFFFFF"></path>
                    <path d="M253.8,59.865 C253.65,60.005 253.5,60.145 253.35,60.285 C253.3,60.225 253.25,60.175 253.2,60.115 C253.35,59.985 253.51,59.845 253.66,59.715 C253.71,59.765 253.75,59.815 253.8,59.865 Z" id="Path" fill="#FFFFFF"></path>
                    <path d="M250.79,60.92 C250.65,61.04 250.5,61.16 250.36,61.28 C250.31,61.23 250.26,61.18 250.21,61.14 C250.33,61 250.44,60.86 250.56,60.72 C250.64,60.79 250.71,60.85 250.79,60.92 Z" id="Path" fill="#FFFFFF"></path>
                    <path d="M251.65,53.005 C251.55,53.055 251.45,53.115 251.35,53.165 C251.38,53.055 251.41,52.945 251.44,52.835 C251.5,52.895 251.57,52.955 251.65,53.005 Z" id="Path" fill="#FFFFFF"></path>
                    <path d="M251.35,60.015 C251.45,59.955 251.55,59.895 251.65,59.835 C251.64,59.945 251.63,60.055 251.62,60.165 C251.53,60.105 251.44,60.055 251.35,60.015 Z" id="Path" fill="#FFFFFF"></path>
                    <path d="M218.03,42.4054054 C218.25,42.1013514 218.47,41.8040541 218.69,41.5 C218.78,41.5337838 218.88,41.5675676 218.97,41.6081081 C218.7,41.9054054 218.44,42.2027027 218.17,42.5 C218.13,42.4662162 218.08,42.4324324 218.03,42.4054054 Z" id="Path" fill="#FFFFFF"></path>
                    <path d="M201.575,74.97 C201.545,75.02 201.525,75.07 201.495,75.12 C201.465,75.09 201.425,75.06 201.425,75.04 C201.435,74.98 201.475,74.93 201.495,74.88 C201.515,74.92 201.545,74.94 201.575,74.97 Z" id="Path" fill="#FFFFFF"></path>
                    <path d="M218.58,43.04 C218.55,43.07 218.52,43.09 218.49,43.12 C218.46,43.07 218.43,43.02 218.42,42.96 C218.42,42.94 218.47,42.91 218.49,42.88 C218.52,42.93 218.55,42.98 218.58,43.04 Z" id="Path" fill="#FFFFFF"></path>
                    <path d="M218.585,42.945 C218.525,43.025 218.475,43.105 218.415,43.185 C218.425,43.065 218.435,42.935 218.445,42.815 C218.495,42.845 218.545,42.895 218.585,42.945 Z" id="Path" fill="#FFFFFF"></path>
                    <polygon id="Path" fill="#FFFFFF" points="84.515 69.04 84.465 68.99 84.535 68.96"></polygon>
                    <path d="M90.4360204,50.08 C90.4760204,50.03 90.5060204,49.97 90.5460204,49.92 C90.5560204,49.97 90.5760204,50.02 90.5860204,50.07 C90.5260204,50.06 90.4760204,50.06 90.4160204,50.05 C90.4060204,50.05 90.4360204,50.08 90.4360204,50.08 Z" id="Path" fill="#FFFFFF"></path>
                    <path d="M169,74.3934426 C169.242647,73.4262295 169.485294,72.4672131 169.720588,71.5 C169.816176,71.5327869 169.911765,71.557377 170,71.5901639 C169.742647,72.557377 169.492647,73.5327869 169.235294,74.5 C169.161765,74.4672131 169.080882,74.4344262 169,74.3934426 Z" id="Path" fill="#FFFFFF"></path>
                    <path d="M180,55.2681159 C180.301676,54.678744 180.608939,54.089372 180.910615,53.5 C180.938547,53.5772947 180.972067,53.6642512 181,53.7415459 C180.703911,54.3309179 180.407821,54.9202899 180.111732,55.5 C180.078212,55.4323671 180.039106,55.3454106 180,55.2681159 Z" id="Path" fill="#FFFFFF"></path>
                    <path d="M181,54.6666667 C180.721805,54.9466667 180.451128,55.2266667 180.172932,55.5 C180.112782,55.4466667 180.06015,55.3933333 180,55.34 C180.278195,55.06 180.56391,54.78 180.842105,54.5 C180.902256,54.5533333 180.954887,54.6133333 181,54.6666667 Z" id="Path" fill="#FFFFFF"></path>
                    <path d="M179.675,55.55 C179.755,55.63 179.825,55.71 179.905,55.79 C179.715,56.01 179.515,56.23 179.325,56.45 C179.245,56.39 179.165,56.33 179.095,56.27 C179.285,56.03 179.475,55.79 179.675,55.55 Z" id="Path" fill="#FFFFFF"></path>
                    <path d="M181.05,53.27 C181.27,53.04 181.48,52.82 181.7,52.59 C181.78,52.64 181.87,52.7 181.95,52.75 C181.74,52.97 181.53,53.19 181.31,53.41 C181.22,53.36 181.13,53.31 181.05,53.27 Z" id="Path" fill="#FFFFFF"></path>
                    <path d="M168.59,73.8277778 C168.57,73.9477778 168.54,74.0577778 168.51,74.1777778 C168.51,74.1877778 168.44,74.1777778 168.44,74.1777778 C168.43,74.0577778 168.42,73.9377778 168.41,73.8177778 C168.47,73.8177778 168.53,73.8177778 168.59,73.8277778 Z" id="Path" fill="#FFFFFF"></path>
                    <polygon id="Path" fill="#FFFFFF" points="182.52 47.95 182.47 48.04 182.53 48.05"></polygon>
                    <path d="M182.805,51.89 C182.735,51.98 182.685,52.08 182.595,52.16 C182.545,52.2 182.465,52.2 182.195,52.27 C182.425,52.01 182.545,51.87 182.665,51.73 C182.695,51.78 182.745,51.84 182.805,51.89 Z" id="Path" fill="#FFFFFF"></path>
                    <path d="M189.595,58.925 C189.535,58.975 189.465,59.025 189.405,59.075 C189.395,59.045 189.385,59.005 189.385,58.975 C189.465,58.965 189.535,58.965 189.615,58.955 C189.615,58.955 189.595,58.925 189.595,58.925 Z" id="Path" fill="#FFFFFF"></path>
                    <path d="M180.3,54 C180.39,53.92 180.47,53.83 180.56,53.75 C180.61,53.84 180.65,53.93 180.7,54.01 C180.62,54.09 180.54,54.17 180.46,54.25 C180.41,54.17 180.35,54.09 180.3,54 Z" id="Path" fill="#FFFFFF"></path>
                    <path d="M180.69,52.95 C180.61,53.03 180.53,53.11 180.45,53.19 C180.4,53.1 180.36,53.01 180.31,52.93 C180.34,52.88 180.38,52.84 180.43,52.81 C180.51,52.85 180.6,52.9 180.69,52.95 Z" id="Path" fill="#FFFFFF"></path>
                    <path d="M181.255,53.04 C181.335,52.96 181.415,52.88 181.495,52.8 C181.575,52.85 181.665,52.91 181.745,52.96 C181.665,53.04 181.585,53.12 181.505,53.2 C181.425,53.15 181.345,53.09 181.255,53.04 Z" id="Path" fill="#FFFFFF"></path>
                    <path d="M181.255,53.04 C181.335,52.96 181.415,52.88 181.495,52.8 C181.575,52.85 181.665,52.91 181.745,52.96 C181.665,53.04 181.585,53.12 181.505,53.2 C181.425,53.15 181.345,53.09 181.255,53.04 Z" id="Path" fill="#FFFFFF"></path>
                    <path d="M181.75,51.94 C181.67,52.03 181.58,52.11 181.5,52.2 C181.42,52.15 181.33,52.09 181.25,52.04 C181.33,51.96 181.41,51.88 181.49,51.8 C181.57,51.85 181.66,51.89 181.75,51.94 Z" id="Path" fill="#FFFFFF"></path>
                    <path d="M182.325,52.005 C182.445,51.955 182.555,51.905 182.675,51.855 C182.645,51.955 182.615,52.055 182.585,52.145 C182.505,52.095 182.415,52.055 182.325,52.005 Z" id="Path" fill="#FFFFFF"></path>
                    <path d="M182.69,51.955 C182.61,52.035 182.53,52.115 182.45,52.195 C182.4,52.145 182.35,52.085 182.31,52.025 C182.39,51.955 182.47,51.875 182.56,51.805 C182.6,51.855 182.64,51.905 182.69,51.955 Z" id="Path" fill="#FFFFFF"></path>
                    <path d="M182.355,51.95 C182.455,51.94 182.545,51.93 182.645,51.91 C182.595,51.97 182.535,52.03 182.485,52.09 C182.435,52.05 182.395,52 182.355,51.95 Z" id="Path" fill="#FFFFFF"></path>
                    <path d="M138.575,15.83 C138.555,15.95 138.535,16.06 138.515,16.18 C138.515,16.18 138.455,16.18 138.455,16.18 C138.445,16.06 138.435,15.94 138.425,15.82 C138.465,15.83 138.515,15.83 138.575,15.83 Z" id="Path" fill="#FFFFFF"></path>
                    <path d="M138.435,19.19 C138.435,19.06 138.435,18.93 138.435,18.8 C138.475,18.8 138.525,18.8 138.565,18.81 C138.555,18.94 138.545,19.07 138.535,19.2 C138.505,19.19 138.475,19.19 138.435,19.19 Z" id="Path" fill="#FFFFFF"></path>
                    <path d="M155.34,15.145 C155.39,15.005 155.44,14.875 155.49,14.735 C155.55,14.755 155.6,14.775 155.66,14.805 C155.59,14.955 155.52,15.115 155.45,15.265 C155.42,15.225 155.38,15.185 155.34,15.145 Z" id="Path" fill="#FFFFFF"></path>
                    <path d="M155.58,14.95 C155.53,15.02 155.47,15.1 155.42,15.17 C155.44,15.06 155.45,14.95 155.47,14.83 C155.51,14.87 155.55,14.91 155.58,14.95 Z" id="Path" fill="#FFFFFF"></path>
                </g>
                <g id="Group-4" filter="url(#filter-3)" transform="translate(55.000000, 0.000000)" fill="#FFFFFF">
                    <path d="M52,84.4499948 C52.3268482,84.1469308 52.6303502,83.6193748 53.0038911,83.5744764 C58.0817121,82.9683483 63.1712062,82.1489528 68.2723735,81.9581347 C74.2490272,81.7336428 80.1673152,81.2060868 86.0856031,80.4652635 C94.2684825,79.4326008 102.509728,78.9387186 110.762646,79.0060661 C111.836576,79.0172907 111.836576,79.0397399 112,80.3081192 C108.754864,80.757103 105.509728,81.3856803 102.241245,81.6326214 C94.4902724,82.1938512 86.7042802,82.4969153 78.9533074,83.0469204 C74.4941634,83.3724337 70.0700389,84.113257 65.6225681,84.4387702 C61.2217899,84.7642835 56.7976654,84.8204065 52.385214,85 C52.2451362,84.8316311 52.1284047,84.640813 52,84.4499948 Z" id="Path"></path>
                    <path d="M110.464013,128 C122.69269,128.116655 133.304064,137.075784 135.526402,149.301261 C137.562576,160.570164 132.9201,171.617423 123.774771,177.275206 C110.9876,185.172771 94.5236815,180.074933 87.7170438,166.111292 C80.3984538,151.097753 88.4966074,133.051175 104.436939,128.956574 C106.391665,128.454956 108.439474,128.303304 110.464013,128 Z M134.805015,154.597412 C134.805015,141.287041 123.902759,130.228117 110.696718,130.157795 C97.4906775,130.08813 86.6465982,141.217047 86.6116066,154.877385 C86.5767865,168.304412 97.2114308,179.176687 110.37093,179.188353 C123.786406,179.188353 134.805015,168.106098 134.805015,154.597412 Z" id="Shape"></path>
                    <path d="M73,156.567236 C72.9651122,168.540503 65.4293545,179.027352 54.6490345,182.047003 C41.3102781,185.792306 27.6924197,178.196363 23.3081902,164.561118 C18.4820491,149.533088 27.4714638,133.720885 42.670901,130.513969 C55.6026334,127.78692 68.6971754,136.17874 72.0580303,149.357527 C72.3952787,150.668383 72.6511223,152.002647 72.8255612,153.336912 C72.9767415,154.413686 72.953483,155.502165 73,156.567236 Z M23.6570679,155.431941 C22.7848737,168.680952 32.8092922,180.326504 45.8224293,181.180902 C59.1844442,182.058707 70.8136999,171.700602 71.7324111,158.100469 C72.6162346,144.968499 62.359231,132.971824 49.4972742,132.094019 C35.9608205,131.169397 24.5874084,141.433869 23.6570679,155.431941 Z" id="Shape"></path>
                    <path d="M92,182.094443 C89.5420805,187.041985 87.2714311,191.586129 85.0241904,196.142139 C82.8003585,200.662554 80.5999353,205.206699 78.2590596,210 C77.4163443,208.540653 76.6087422,207.342328 75.9767058,206.06095 C72.3834615,198.681165 68.8370348,191.289514 65.2671994,183.897864 C64.822433,182.972424 64.8809549,182.18936 65.8407139,181.655453 C68.6497648,180.089325 71.4002937,178.368957 74.3029796,177.004527 C77.4865706,175.509586 80.8223185,175.735014 83.9122744,177.336736 C86.7330296,178.784218 89.3899236,180.54018 92,182.094443 Z M78.2941727,202.050713 C82.0161651,195.80993 85.7147487,189.616605 89.5771936,183.138529 C86.5223508,181.952068 83.8420481,180.872389 81.1383367,179.911356 C80.190282,179.579147 79.1134792,179.341855 78.1303114,179.436771 C74.0454833,179.816439 70.3937172,181.607995 66.6951336,183.079206 C70.5692829,189.438635 74.3732059,195.65569 78.2941727,202.050713 Z" id="Shape"></path>
                    <path d="M112,156.402738 C111.976264,163.946428 107.217154,168.477139 100.665959,167.959985 C96.0492664,167.600227 91.3494967,163.463002 90.3051034,158.831109 C89.355655,154.615187 90.6136742,151.073813 94.197842,148.420593 C97.8294822,145.733645 101.900242,145.227735 106.054079,147.183922 C110.326597,149.196322 111.857583,152.850121 112,156.402738 Z M107.691878,154.356611 C107.691878,153.569639 107.478252,152.883849 107.039132,152.310483 C106.386386,151.467299 105.223312,151.501026 104.451885,152.243029 C103.312547,153.333547 103.395624,155.671978 104.60617,156.616345 C105.448806,157.268408 106.588144,157.178468 107.193417,156.279071 C107.54946,155.739433 107.691878,155.109856 107.691878,154.356611 Z" id="Shape"></path>
                    <path d="M44.0000693,157.260123 C44.0227723,151.119327 49.0586746,146.011781 55.0904408,146.00002 C61.337223,145.988298 66.0449429,151.236741 65.9996763,158.152476 C65.9544098,165.009503 61.5635556,170.034858 55.6562725,169.999818 C49.4660735,169.952668 43.9775058,163.964511 44.0000693,157.260123 Z M61.4617059,154.841377 C61.4730226,153.232794 60.5790085,152.023421 59.4133951,152.058645 C58.3156816,152.09387 57.4556174,153.314984 57.4556174,154.829636 C57.4556174,156.414736 58.3609481,157.612368 59.5378781,157.588885 C60.6582249,157.55366 61.4503893,156.426478 61.4617059,154.841377 Z" id="Shape"></path>
                    <path d="M20.0771767,112.182199 C14.363268,107.468654 11.11145,100.942206 7.46476849,94.7315535 C7.08151852,94.0648733 7.05829125,92.7899937 7.45315486,92.1700981 C7.80156392,91.6320755 9.03260929,91.2811912 9.75265469,91.4449372 C11.0766091,91.7373408 12.38895,92.3338441 13.5735408,93.0239166 C15.5826997,94.1818348 17.487336,95.5268913 19.4268131,96.7900747 C19.8797449,97.0824783 20.3326767,97.3982742 20.832063,97.7257662 C21.087563,96.1116984 21.691472,95.5736758 23.2128583,95.6087643 C26.8943807,95.6906373 29.7977896,97.0123015 31.1449713,100.766763 C31.3307895,101.29309 31.5514486,101.796024 31.7256531,102.240478 C33.9438575,101.035775 36.127221,99.8661605 38.2873572,98.6497615 C38.5080163,98.521104 38.7054481,98.1585235 38.7170617,97.8895122 C38.9261072,94.9537802 39.1003117,92.0297444 39.2745162,89.0238355 C38.2525163,89.2577584 37.3234254,89.5384658 36.3711073,89.6905157 C29.1590397,90.9069146 23.4102901,87.7489559 20.4255857,80.9418005 C18.3699723,76.251647 17.835745,71.2924822 18.1957677,66.2748367 C19.1713131,52.2160723 24.6529491,39.8415526 32.654744,28.5196858 C35.140062,24.9991467 38.4499481,22.332426 42.8399023,21.4318229 C46.7885384,20.6130929 50.5397427,21.3967345 54.0006061,23.2798136 C57.1711286,24.9991467 60.1790602,27.0108833 63.0592418,28.777001 C64.4993326,25.59565 65.7419916,22.1101993 67.5885596,18.9756328 C69.5164231,15.7124088 71.815923,12.5895386 74.3476955,9.770768 C78.760877,4.84669163 84.6722175,2.44898224 90.966808,1.03374889 C109.339579,-3.08329358 125.227033,5.38471423 134.576009,21.3148615 C138.664009,28.285763 140.963509,35.8882562 140.766077,44.110645 C140.603486,51.2335963 137.874282,57.2921986 132.973328,62.3098441 C129.256964,66.1110907 126.341942,70.4737521 123.705647,75.0469442 C123.241101,75.842282 123.020442,76.8832387 122.997215,77.8189302 C122.82301,85.2927658 122.741715,92.7782976 122.579124,100.252133 C122.555897,101.515317 122.82301,102.217085 124.088897,102.766804 C126.423237,103.772672 128.629828,105.070944 130.836419,106.217166 C131.649373,104.837021 132.40426,103.351611 133.356578,102.006555 C134.680532,100.135172 139.500191,98.6146731 141.602259,99.4450993 C142.252622,99.7024144 142.682327,100.532841 143.274622,101.176129 C145.75994,99.912945 148.407849,98.4860155 151.12544,97.1994398 C152.495849,96.5561519 153.959167,95.9830409 155.445712,95.7374218 C156.188985,95.6087643 157.431644,96.0415216 157.791667,96.6263287 C158.15169,97.2111359 158.02394,98.5561924 157.571008,99.1409996 C154.841803,102.673235 152.100985,106.240559 149.058213,109.503783 C147.060668,111.644177 144.540509,113.293333 142.182941,115.223197 C143.402372,116.544861 144.900531,118.041967 146.259327,119.667731 C157.849735,133.504269 160.10278,149.212189 155.155372,166.206686 C151.903554,177.399895 145.736713,186.955644 137.8046,195.353475 C127.828487,205.915092 116.133556,213.845078 102.290103,218.383181 C95.1361031,220.734106 87.8078991,221.272129 80.3171042,220.886156 C64.7199917,220.090818 49.7151746,217.014733 35.7207437,209.798212 C23.061881,203.260068 12.8418817,194.078595 6.2569504,181.201142 C1.36760984,171.633696 -0.502185485,161.411267 0.113337198,150.6976 C0.833382602,138.276295 6.55890492,128.077258 14.2122907,118.767128 C16.0240179,116.533165 18.0447905,114.451251 20.0771767,112.182199 Z M135.052168,104.182037 C134.192759,105.23469 133.344964,106.287343 132.485555,107.339996 C135.110237,109.375125 137.456191,111.188027 139.8486,113.05941 C144.726327,109.527175 148.384622,104.801933 152.263576,100.146868 C152.008076,100.100083 151.903554,100.053299 151.833872,100.076691 C146.410304,101.866201 141.114486,103.924722 136.608396,107.609007 C136.167077,107.971588 135.388964,107.901411 134.773441,108.041765 C134.668918,107.363388 134.448259,106.673316 134.517941,106.006636 C134.576009,105.433525 134.970873,104.907198 135.214759,104.35748 C135.272828,104.275607 135.342509,104.193734 135.400578,104.11186 C135.284441,104.135253 135.168305,104.158645 135.052168,104.182037 Z M30.7384941,112.252376 C30.9475395,112.158807 31.1681986,112.076934 31.3656304,111.971669 C45.2323112,104.451049 60.5506965,105.971547 72.6404911,116.100407 C74.3360819,117.515641 75.8923091,119.106316 77.4136953,120.509854 C78.633127,119.340239 79.782877,118.182321 80.9906951,117.09458 C90.6300125,108.416041 101.755875,104.930591 114.449579,108.018372 C124.843783,110.544739 132.543623,117.024403 138.280759,125.925168 C144.505668,135.574486 147.095509,146.253065 146.90969,157.715286 C146.747099,168.007892 143.901759,177.516856 138.710464,186.30066 C134.390191,193.599053 128.025919,198.815533 120.709329,202.815614 C104.821875,211.505849 87.6917628,214.160874 69.8532186,213.038044 C57.4150149,212.254402 45.464584,209.423935 34.4084029,203.493991 C23.5612673,197.681008 15.1181543,189.867984 11.3088819,177.411591 C8.31256389,167.610223 6.77956399,157.890728 8.37063206,147.761868 C10.1126774,136.627139 14.5839271,126.802379 22.585722,118.755432 C23.7470855,117.585818 25.0013581,116.498076 26.1511081,115.433727 C24.7806991,114.84892 23.4219037,114.275809 21.946972,113.655913 C16.1285406,119.082924 10.8559501,125.12983 6.96538216,132.299566 C4.27101872,137.270427 2.30831431,142.498603 1.76247344,148.136144 C0.0784962919,165.294387 5.26979138,180.125096 17.1969951,192.464528 C25.8839944,201.458862 36.5453119,207.260149 48.2402429,211.271926 C58.495083,214.804161 69.0867186,216.488406 79.875786,217.096606 C87.0530128,217.505971 94.1605578,217.248655 101.059057,214.967907 C120.36092,208.570117 135.307668,196.511393 146.329009,179.44672 C151.566758,171.341293 154.853417,162.440528 155.46894,152.732729 C156.36319,138.592091 151.288031,126.802379 141.219009,117.047795 C140.289918,116.147192 139.500191,115.843092 138.199464,116.193977 C135.609623,116.872353 133.774669,115.878181 132.6946,113.410294 C132.171987,112.217288 131.76551,110.977497 131.300964,109.761098 C131.184828,109.456998 131.12676,109.035937 130.906101,108.895583 C128.246578,107.293211 125.552215,105.725928 122.590738,103.983203 C122.590738,105.831194 122.590738,107.164554 122.590738,108.486218 C94.7993077,100.918813 66.7059233,101.936378 38.484789,104.287303 C38.484789,103.468573 38.484789,102.649843 38.484789,101.339875 C36.2317437,102.825285 34.2341984,104.123557 32.2482667,105.456917 C32.1321304,105.53879 32.1205167,105.784409 32.0740622,105.948155 C31.539835,107.971588 31.0056077,109.995021 30.4829941,112.018453 C30.4713805,112.135415 30.4713805,112.264072 30.4597668,112.381034 C30.5294487,112.345945 30.6339714,112.299161 30.7384941,112.252376 Z M63.11731,41.5959741 C62.0256282,41.9234661 61.7817419,41.3971397 61.8630373,40.4497521 C62.0604691,38.0286504 62.2579009,35.6075487 62.3972646,33.186447 C62.4204918,32.7186013 62.3043555,31.9700481 61.9907873,31.7829098 C58.5299239,29.7243886 55.1271287,27.5021214 51.4920608,25.8061806 C45.557493,23.0458907 40.0061753,24.0985436 35.4420165,28.8120894 C33.2934939,31.0226605 31.3888577,33.5841159 29.8790851,36.2742289 C24.8968354,45.1516017 22.4695856,54.8477046 21.7843811,64.9765648 C21.4708129,69.6199337 21.8656766,74.2282142 23.5264264,78.6376602 C26.1162672,85.5032964 31.4353122,88.2284978 38.5080163,86.4155956 C39.2977435,86.2167611 39.5300162,85.9009653 39.5648571,85.1056275 C39.6345389,83.0120178 39.8087435,80.9301043 39.9597207,78.7195332 C40.459107,78.7546217 40.8771979,78.7897101 41.2604479,78.8131024 C41.2604479,81.1172426 41.2604479,83.2576369 41.2604479,85.6670424 C43.8038341,84.4506435 46.196243,83.3044214 48.6699474,82.1231109 C48.8673792,82.4272107 49.0764246,82.7663988 49.3435382,83.1757638 C48.1124929,84.0529746 46.9743566,84.9301854 45.7665385,85.7021308 C44.6400158,86.4272917 43.4786523,87.1407565 42.2476069,87.6670829 C41.3765842,88.0530556 41.1094706,88.5676859 41.1094706,89.468289 C41.1094706,91.8075177 41.0165615,94.1350502 40.9817206,96.4742789 C40.9584934,98.1819158 40.9817206,99.8778566 40.9817206,101.585494 C67.7859915,98.2871811 94.2999214,97.5971086 120.465442,105.655751 C120.52351,104.380872 120.628033,103.176169 120.639647,101.983162 C120.755783,93.6204199 120.860306,85.2459812 120.988056,76.8832387 C120.999669,76.2984315 121.080965,75.6434475 121.336465,75.1288172 C123.798556,70.29831 126.481305,65.5964603 130.174442,61.6080755 C135.296055,56.0874958 138.118168,49.6897054 137.583941,42.0638199 C137.107782,35.303449 134.959259,29.02262 131.579691,23.1745483 C122.904306,8.15670021 107.899489,1.06883732 91.442967,4.43732662 C86.983331,5.3496258 82.5004677,6.4022787 78.8537861,9.5836297 C73.4302183,14.3205678 69.2493095,19.9347166 66.4504234,26.5898222 C64.7432189,30.6600801 65.0103326,31.2331911 69.1447868,32.9174357 C70.701014,33.5490275 72.1294911,33.5139391 73.3024683,32.1104019 C73.3837638,32.0168327 73.5231274,31.9817443 73.662491,31.9115674 C73.9528319,32.1571864 74.2199455,32.3911093 74.7077182,32.8004743 C73.8715365,33.5256352 73.2327865,34.4145421 72.3617639,34.8005148 C69.4351277,36.0753945 66.9381961,34.3443652 64.3251281,33.2098393 C64.1625372,33.9350002 63.9999463,34.5198074 63.9186508,35.1163107 C63.6166963,37.2450088 63.3844236,39.3737069 63.11731,41.5959741 Z M77.4717635,124.404669 C75.7297182,122.556679 74.0689683,120.615119 72.2224002,118.860697 C58.8434921,106.20547 39.4951753,105.737624 25.7910854,118.041967 C13.2715863,129.281961 8.9048593,143.855356 9.89201832,160.335222 C10.2404274,166.113117 12.0405409,171.540127 13.7477453,177.049011 C16.0588588,184.522846 20.3791312,190.335829 26.3485399,195.061071 C36.73113,203.271764 48.8441519,207.236757 61.6888328,209.283582 C72.071423,210.944434 82.488854,210.89765 92.8830578,209.283582 C103.265648,207.669514 113.183693,204.628517 122.300397,199.236595 C128.420783,195.61079 133.751441,191.107775 137.502646,184.943907 C144.052736,174.183455 146.677418,162.522401 145.225713,149.960743 C143.983054,139.118418 139.999577,129.469099 132.543623,121.468937 C125.470919,113.87814 116.818761,109.492086 106.354875,109.456998 C97.180103,109.42191 89.2944445,112.965841 82.5585359,119.141405 C80.7351951,120.790561 79.1325134,122.661944 77.4717635,124.404669 Z M27.4518352,105.667448 C23.317381,101.059167 18.0447905,98.275485 12.4586318,95.9362563 C15.5594725,100.825244 18.346745,105.90137 22.3534492,110.111982 C24.1419491,108.556395 25.8143126,107.094377 27.4518352,105.667448 Z M138.907895,113.620825 C139.244691,116.930834 135.296055,115.188108 137.897509,114.135455 C136.364509,112.942449 137.583941,111.971669 138.907895,113.620825 Z" id="Shape"></path>
                </g>
            </g>
        </g>
    </g>
</svg>